<svg width="12" height="12" viewBox="0 0 12 12" fill="none" xmlns="http://www.w3.org/2000/svg">
<path d="M3.87503 2C3.87503 1.79289 3.70714 1.625 3.50003 1.625C3.29292 1.625 3.12503 1.79289 3.12503 2V2.90821C2.37849 3.01376 1.78872 3.60423 1.68888 4.35742L1.6456 4.6839C1.63827 4.73925 1.63125 4.79463 1.62456 4.85004C1.6068 4.99702 1.7226 5.125 1.87066 5.125H10.1294C10.2774 5.125 10.3932 4.99702 10.3755 4.85004C10.3688 4.79463 10.3618 4.73925 10.3544 4.68389L10.3112 4.35742C10.2113 3.60423 9.62155 3.01377 8.87503 2.90822V2C8.87503 1.79289 8.70714 1.625 8.50003 1.625C8.29292 1.625 8.12503 1.79289 8.12503 2V2.83382C6.71116 2.7079 5.2889 2.7079 3.87503 2.83381V2Z" fill="#FFC01E"/>
<path d="M10.4723 6.11278C10.4679 5.97956 10.3579 5.875 10.2246 5.875H1.77546C1.64218 5.875 1.5321 5.97956 1.52772 6.11278C1.49802 7.01661 1.55292 7.92229 1.69229 8.81793C1.79779 9.49595 2.34862 10.0167 3.03149 10.0841L3.62799 10.1429C5.20552 10.2985 6.79452 10.2985 8.37204 10.1429L8.96854 10.0841C9.65141 10.0167 10.2022 9.49595 10.3077 8.81793C10.4471 7.92229 10.502 7.01661 10.4723 6.11278Z" fill="#FFC01E"/>
</svg>
