<svg width="36" height="36" viewBox="0 0 36 36" fill="none" xmlns="http://www.w3.org/2000/svg">
<path d="M20.694 6.20418C19.2204 4.68225 16.7795 4.68225 15.3059 6.20417L8.10818 13.6378C7.69481 14.0647 7.41703 14.6044 7.30985 15.1889C6.43571 19.9559 6.37118 24.8361 7.11898 29.6245L7.38374 31.3198C7.46736 31.8552 7.92856 32.25 8.47052 32.25H13.5C13.9142 32.25 14.25 31.9142 14.25 31.5V21H21.75V31.5C21.75 31.9142 22.0857 32.25 22.5 32.25H27.5293C28.0713 32.25 28.5325 31.8552 28.6161 31.3198L28.8809 29.6245C29.6287 24.8361 29.5641 19.9559 28.69 15.1889C28.5828 14.6044 28.305 14.0647 27.8917 13.6378L20.694 6.20418Z" fill="#1FCB4F"/>
</svg>
