<svg width="36" height="36" viewBox="0 0 36 36" fill="none" xmlns="http://www.w3.org/2000/svg">
<path d="M13.602 4.84203C11.5568 4.61345 9.4432 4.61345 7.39796 4.84203C6.08219 4.98909 5.01824 6.02522 4.86307 7.35187C4.61844 9.4435 4.61844 11.5565 4.86307 13.6481C5.01824 14.9748 6.08219 16.0109 7.39796 16.158C9.4432 16.3866 11.5568 16.3866 13.602 16.158C14.9178 16.0109 15.9817 14.9748 16.1369 13.6481C16.3815 11.5565 16.3815 9.4435 16.1369 7.35187C15.9817 6.02522 14.9178 4.98909 13.602 4.84203Z" fill="#393B40"/>
<path d="M13.602 19.842C11.5568 19.6134 9.4432 19.6134 7.39796 19.842C6.08219 19.9891 5.01824 21.0252 4.86307 22.3519C4.61844 24.4435 4.61844 26.5565 4.86307 28.6481C5.01824 29.9748 6.08219 31.0109 7.39796 31.158C9.4432 31.3866 11.5568 31.3866 13.602 31.158C14.9178 31.0109 15.9817 29.9748 16.1369 28.6481C16.3815 26.5565 16.3815 24.4435 16.1369 22.3519C15.9817 21.0252 14.9178 19.9891 13.602 19.842Z" fill="#393B40"/>
<path d="M28.602 4.84203C26.5568 4.61345 24.4432 4.61345 22.398 4.84203C21.0822 4.98909 20.0183 6.02522 19.8631 7.35187C19.6185 9.4435 19.6185 11.5565 19.8631 13.6481C20.0183 14.9748 21.0822 16.0109 22.398 16.158C24.4432 16.3866 26.5568 16.3866 28.602 16.158C29.9178 16.0109 30.9817 14.9748 31.1369 13.6481C31.3815 11.5565 31.3815 9.4435 31.1369 7.35187C30.9817 6.02522 29.9178 4.98909 28.602 4.84203Z" fill="#393B40"/>
<path d="M28.602 19.842C26.5568 19.6134 24.4432 19.6134 22.398 19.842C21.0822 19.9891 20.0183 21.0252 19.8631 22.3519C19.6185 24.4435 19.6185 26.5565 19.8631 28.6481C20.0183 29.9748 21.0822 31.0109 22.398 31.158C24.4432 31.3866 26.5568 31.3866 28.602 31.158C29.9178 31.0109 30.9817 29.9748 31.1369 28.6481C31.3815 26.5565 31.3815 24.4435 31.1369 22.3519C30.9817 21.0252 29.9178 19.9891 28.602 19.842Z" fill="#393B40"/>
</svg>
