<svg width="36" height="36" viewBox="0 0 36 36" fill="none" xmlns="http://www.w3.org/2000/svg">
<path d="M19.9135 8.84128C20.5663 9.08179 21 9.70374 21 10.3994L21 32.0781C21 32.7738 20.5663 33.3958 19.9135 33.6363C18.6784 34.0913 17.3216 34.0913 16.0865 33.6363C15.4337 33.3958 15 32.7738 15 32.0782L15 10.3994C15 9.70374 15.4337 9.08179 16.0865 8.84128C17.3216 8.38625 18.6784 8.38625 19.9135 8.84128Z" fill="#393B40"/>
<path d="M7.91352 14.0463C8.56632 14.2868 9 14.9087 9 15.6044L9 32.0781C9 32.7738 8.56632 33.3958 7.91352 33.6363C6.67842 34.0913 5.32158 34.0913 4.08648 33.6363C3.43367 33.3958 3 32.7738 3 32.0782L3 15.6044C3 14.9087 3.43368 14.2868 4.08648 14.0463C5.32158 13.5912 6.67842 13.5912 7.91352 14.0463Z" fill="#393B40"/>
<path d="M31.827 2.34131C32.4798 2.58182 32.9135 3.20376 32.9135 3.89946L32.9135 32.0781C32.9135 32.7738 32.4798 33.3958 31.827 33.6363C30.5919 34.0913 29.2351 34.0913 28 33.6363C27.3472 33.3958 26.9135 32.7738 26.9135 32.0782L26.9135 3.89946C26.9135 3.20376 27.3472 2.58181 28 2.34131C29.2351 1.88627 30.5919 1.88627 31.827 2.34131Z" fill="#393B40"/>
</svg>
