<svg width="36" height="36" viewBox="0 0 36 36" fill="none" xmlns="http://www.w3.org/2000/svg">
<path d="M13.125 18C13.125 15.3076 15.3076 13.125 18 13.125C20.6924 13.125 22.875 15.3076 22.875 18C22.875 20.6924 20.6924 22.875 18 22.875C15.3076 22.875 13.125 20.6924 13.125 18Z" fill="#393B40"/>
<path fill-rule="evenodd" clip-rule="evenodd" d="M17.1911 2.75778C17.6333 2.30022 18.3667 2.30022 18.8089 2.75778L22.6674 6.75001H28.125C28.7463 6.75001 29.25 7.25369 29.25 7.87501V13.3326L33.2422 17.1911C33.6998 17.6333 33.6998 18.3667 33.2422 18.8089L29.25 22.6674V28.125C29.25 28.7463 28.7463 29.25 28.125 29.25H22.6674L18.8089 33.2422C18.3667 33.6998 17.6333 33.6998 17.1911 33.2422L13.3326 29.25H7.87501C7.25369 29.25 6.75001 28.7463 6.75001 28.125V22.6674L2.75778 18.8089C2.30022 18.3667 2.30022 17.6333 2.75778 17.1911L6.75001 13.3326V7.87501C6.75001 7.25369 7.25369 6.75001 7.87501 6.75001H13.3326L17.1911 2.75778ZM18 10.875C14.065 10.875 10.875 14.065 10.875 18C10.875 21.935 14.065 25.125 18 25.125C21.935 25.125 25.125 21.935 25.125 18C25.125 14.065 21.935 10.875 18 10.875Z" fill="#393B40"/>
</svg>
