<svg width="36" height="36" viewBox="0 0 36 36" fill="none" xmlns="http://www.w3.org/2000/svg">
<path fill-rule="evenodd" clip-rule="evenodd" d="M6.20968 23.8425C6.87776 23.8425 7.41936 24.3766 7.41936 25.0354V28.2165C7.41936 28.4361 7.59989 28.6142 7.82258 28.6142H27.1774C27.4001 28.6142 27.5806 28.4361 27.5806 28.2165V25.0354C27.5806 24.3766 28.1222 23.8425 28.7903 23.8425C29.4584 23.8425 30 24.3766 30 25.0354V28.2165C30 29.7538 28.7363 31 27.1774 31H7.82258C6.26371 31 5 29.7538 5 28.2165V25.0354C5 24.3766 5.54159 23.8425 6.20968 23.8425Z" fill="#393B40"/>
<path fill-rule="evenodd" clip-rule="evenodd" d="M15.4643 23.6473C14.6346 23.6473 13.9425 23.022 13.8701 22.207C13.6223 19.4192 13.5786 16.6177 13.7392 13.8243C13.3408 13.8026 12.9426 13.7774 12.5446 13.7488L10.1421 13.5761C9.21581 13.5095 8.698 12.491 9.19808 11.7192C10.9111 9.0756 13.1183 6.77737 15.7021 4.94705L16.6646 4.26522C17.1638 3.91159 17.8362 3.9116 18.3354 4.26522L19.2979 4.94705C21.8817 6.77737 24.0889 9.0756 25.8019 11.7192C26.302 12.491 25.7842 13.5095 24.8579 13.5761L22.4554 13.7488C22.0573 13.7774 21.6591 13.8026 21.2608 13.8243C21.4214 16.6177 21.3777 19.4192 21.1299 22.207C21.0574 23.022 20.3653 23.6473 19.5357 23.6473H15.4643Z" fill="#393B40"/>
</svg>
